<?xml version="1.0" encoding="UTF-8"?>
<svg version="1.1" xmlns="http://www.w3.org/2000/svg" width="1080" height="1080">
<path d="M0 0 C356.4 0 712.8 0 1080 0 C1080 356.4 1080 712.8 1080 1080 C723.6 1080 367.2 1080 0 1080 C0 723.6 0 367.2 0 0 Z " fill="#000000" transform="translate(0,0)"/>
<path d="M0 0 C6.63086393 -0.06958155 13.26041665 -0.12909608 19.89135742 -0.16479492 C22.13814633 -0.17970617 24.38490706 -0.20004231 26.6315918 -0.22631836 C61.43962454 -0.62265899 61.43962454 -0.62265899 77.3125 6.125 C78.04194824 6.42212891 78.77139648 6.71925781 79.52294922 7.02539062 C99.24793977 15.40582281 113.58974161 29.15078897 122 49 C126.8718107 62.09299126 128.29819433 75.11613119 128.28710938 89.01342773 C128.293153 90.36207484 128.30008205 91.71071822 128.30781555 93.05935669 C128.32256411 95.93585226 128.331418 98.81228012 128.33552551 101.68881035 C128.3423158 106.25143528 128.36415748 110.81391718 128.38806152 115.3764801 C128.43675512 125.06345294 128.46925043 134.75045607 128.5 144.4375 C128.53321025 154.89701297 128.56935444 165.35646892 128.62413073 175.81589466 C128.64725848 180.33718452 128.66116392 184.85837374 128.66762543 189.37971675 C128.67362811 192.20802042 128.68777787 195.03624386 128.70396996 197.86450577 C128.71250089 199.77012099 128.71143766 201.67577193 128.70991516 203.58140564 C128.82105541 219.29932868 130.11954433 236.22678567 141.62890625 248.0625 C155.95951769 259.77252187 174.15403865 259.11531962 191.625 259.5625 C199.730625 259.7790625 199.730625 259.7790625 208 260 C208 275.18 208 290.36 208 306 C188.3125 306.3125 188.3125 306.3125 182.18481445 306.38793945 C167.52448058 306.64115647 152.81467703 307.49811417 141.16015625 317.59375 C126.55286432 333.35327106 128.57821273 356.21554289 128.65044022 376.13187027 C128.66705282 380.71794966 128.65821816 385.30378239 128.64559937 389.88986206 C128.61573285 402.10035308 128.61683778 414.31079603 128.63585222 426.52130497 C128.64828156 434.56335367 128.64605656 442.60511537 128.61746442 450.6471318 C128.6048881 454.44839222 128.60158057 458.24912074 128.62215042 462.05035782 C128.77246176 491.07665365 126.06573441 519.49374656 105.34765625 541.80859375 C92.98538905 553.3480811 78.14863478 559.04376431 62 563 C61.03489502 563.34369629 60.06979004 563.68739258 59.07543945 564.04150391 C53.59473014 565.60762692 47.9356685 565.24529653 42.28515625 565.1953125 C41.07427841 565.1924826 39.86340057 565.18965271 38.61582947 565.18673706 C34.76461732 565.1755803 30.91364136 565.15048355 27.0625 565.125 C24.44466483 565.1149644 21.82682599 565.10583956 19.20898438 565.09765625 C12.80582632 565.07736098 6.40317623 565.03820258 0 565 C0 551.47 0 537.94 0 524 C16.3125 523.625 16.3125 523.625 21.38793945 523.52197266 C36.69695747 523.15377825 53.24174051 521.88629868 65 511 C65.54269531 510.51015625 66.08539062 510.0203125 66.64453125 509.515625 C73.91579661 502.07868524 77.11798964 490.61821825 77.13130188 480.41491699 C77.13531006 479.30248123 77.13931824 478.19004547 77.14344788 477.04389954 C77.14291916 475.83251816 77.14239044 474.62113678 77.1418457 473.37304688 C77.14717997 471.40214199 77.15252022 469.43123712 77.15808237 467.46033287 C77.16327294 465.34414499 77.1661913 463.22796332 77.16866493 461.11177063 C77.17460693 456.67811238 77.19118312 452.24453311 77.21000671 447.81091309 C77.21634438 446.28769689 77.22267 444.76448064 77.22898388 443.24126434 C77.23214969 442.47828757 77.2353155 441.7153108 77.23857725 440.92921352 C77.28046675 430.61542123 77.31354075 420.30166454 77.32592773 409.98779297 C77.33437885 403.02241626 77.35713318 396.0572347 77.3952834 389.09195566 C77.4148247 385.4175436 77.42752364 381.7434217 77.42244911 378.06895447 C77.39169514 350.63458168 78.39960534 324.5231273 98.0625 303.4375 C105.00357778 296.74558912 117.99548827 286 128 286 C128 283.69 128 281.38 128 279 C126.7625 278.649375 125.525 278.29875 124.25 277.9375 C113.54420464 274.32408398 104.93218264 267.90454437 97 260 C96.04480469 259.07960938 96.04480469 259.07960938 95.0703125 258.140625 C79.58999378 242.04109353 77.84872369 218.86151485 77.8581543 197.74853516 C77.85282092 195.78683506 77.84748157 193.82513497 77.84191763 191.86343551 C77.83675734 189.77670988 77.83381918 187.68999045 77.83133507 185.60326004 C77.82536349 181.23012704 77.80876732 176.85707279 77.78999329 172.48397827 C77.78365787 170.97935681 77.77733222 169.4747353 77.77101612 167.97011375 C77.76785031 167.21717498 77.7646845 166.4642362 77.76142275 165.68848109 C77.71954134 155.52573268 77.6863743 145.36302442 77.67407227 135.20019531 C77.66565786 128.31908373 77.64305135 121.43817157 77.6047166 114.55715978 C77.58508521 110.92780315 77.57250823 107.29874366 77.57755089 103.6693306 C77.58311544 99.61603014 77.55764647 95.56346433 77.5300293 91.51025391 C77.53663071 90.33062576 77.54323212 89.15099762 77.55003357 87.93562317 C77.42584785 76.76919026 75.00546332 66.84277357 68.26953125 57.8046875 C67 56 67 56 66 53 C64.21121676 51.92494609 64.21121676 51.92494609 62 51 C61.20207031 50.53722656 60.40414062 50.07445312 59.58203125 49.59765625 C41.53824411 39.59595195 19.9769119 41.40439093 0 41 C0 27.47 0 13.94 0 0 Z " fill="#8B51FD" transform="translate(847,254)"/>
<path d="M0 0 C2.10416239 0.0100538 4.20832945 0.01917539 6.3125 0.02734375 C11.41687922 0.04743973 16.52059629 0.08662102 21.625 0.125 C21.625 13.985 21.625 27.845 21.625 42.125 C1.9375 42.375 1.9375 42.375 -4.19018555 42.42285156 C-19.01946985 42.64101502 -32.07632727 44.38092008 -43.33984375 54.97265625 C-53.94771412 66.25333023 -54.67472926 80.40384659 -54.66210938 95.23046875 C-54.66894241 96.48090973 -54.67577545 97.73135071 -54.68281555 99.01968384 C-54.69632456 101.71402254 -54.70641843 104.40810465 -54.71052551 107.10244751 C-54.71731306 111.37460513 -54.73915112 115.64660982 -54.76306152 119.91870117 C-54.81175931 128.98743134 -54.8442594 138.05619384 -54.875 147.125 C-54.90820202 156.91995076 -54.94431004 166.71484055 -54.99913073 176.50969791 C-55.0222816 180.74469736 -55.03616979 184.97958906 -55.04262543 189.21464539 C-55.0500276 192.48297828 -55.07003105 195.75124133 -55.08789062 199.01953125 C-55.08690872 200.17313141 -55.08592682 201.32673157 -55.08491516 202.51528931 C-55.23557979 222.4200769 -60.06306106 243.29788199 -74.1640625 258.07421875 C-80.73395624 264.16820146 -93.78648302 275.125 -103.375 275.125 C-103.375 277.765 -103.375 280.405 -103.375 283.125 C-102.67761719 283.22683594 -101.98023437 283.32867188 -101.26171875 283.43359375 C-88.12874848 286.57910896 -75.17044629 297.32135245 -67.375 308.125 C-54.96013496 329.165454 -55.08735893 351.80652618 -55.03947449 375.59508705 C-55.03107076 379.63698829 -55.01073856 383.67867373 -54.98693848 387.72050476 C-54.93435586 397.01980966 -54.90052268 406.31916285 -54.86717987 415.61855316 C-54.83634167 424.17036522 -54.80134171 432.72210752 -54.75086927 441.27382916 C-54.72408639 445.91858828 -54.71207645 450.56325049 -54.70275879 455.20808411 C-54.68977737 457.6560598 -54.67625575 460.10403271 -54.66210938 462.55200195 C-54.66309128 463.63647614 -54.66407318 464.72095032 -54.66508484 465.83828735 C-54.55364283 479.78291802 -52.91054622 493.22931766 -43.25 504 C-33.84327015 512.5307151 -21.93768782 515.37340515 -9.625 515.5390625 C-8.82707031 515.55670654 -8.02914062 515.57435059 -7.20703125 515.5925293 C-4.26321526 515.65497897 -1.31908033 515.7015897 1.625 515.75 C8.225 515.87375 14.825 515.9975 21.625 516.125 C21.625 529.655 21.625 543.185 21.625 557.125 C14.29975024 557.24090585 6.97778614 557.34010563 -0.34765625 557.3996582 C-2.83018885 557.42452846 -5.3126504 557.45843716 -7.79492188 557.50219727 C-36.96949559 558.00297246 -61.58841291 552.7114643 -83.5625 532.4375 C-104.85423682 510.01368719 -104.82887549 479.22273226 -104.81524777 450.26480412 C-104.81722001 446.57536415 -104.83766747 442.88602612 -104.85643005 439.19664001 C-104.89700359 430.6511102 -104.91592119 422.10560167 -104.93260193 413.55999756 C-104.95510931 402.65801103 -104.9888129 391.75608373 -105.03980106 380.85419267 C-105.05952121 376.4906649 -105.06928879 372.12727023 -105.07075322 367.76369965 C-105.0728577 365.70061209 -105.07944379 363.63759444 -105.08792114 361.57452393 C-105.09806027 359.07889182 -105.10140382 356.5832171 -105.09602356 354.08757019 C-105.17912117 340.3976679 -106.35719389 324.20364663 -116.328125 313.71875 C-130.44344803 302.72819313 -146.50680578 302.79953402 -163.5625 302.5 C-169.770625 302.37625 -175.97875 302.2525 -182.375 302.125 C-182.375 286.945 -182.375 271.765 -182.375 256.125 C-163.5625 255.75 -163.5625 255.75 -157.69604492 255.64697266 C-141.33162046 255.45623252 -141.33162046 255.45623252 -126 250.25 C-125.04351562 249.75757813 -124.08703125 249.26515625 -123.1015625 248.7578125 C-114.53985772 243.63060248 -110.16155292 236.55182519 -107.375 227.125 C-105.39824385 218.84923634 -105.09138675 210.82110257 -105.11962891 202.34204102 C-105.11687166 200.99357391 -105.11318735 199.64510844 -105.10865784 198.29664612 C-105.10060431 195.4130235 -105.09836263 192.52947814 -105.10060501 189.64584541 C-105.10346711 185.06493581 -105.08897653 180.48417685 -105.07162476 175.90330505 C-105.02488017 162.88355781 -105.00069256 149.86382171 -104.99414062 136.84399414 C-104.9903612 129.63725087 -104.97210319 122.43067954 -104.93904626 115.22400993 C-104.92232705 111.42618431 -104.9128841 107.628671 -104.92198563 103.83081245 C-104.98558247 74.75308149 -103.10684789 46.048864 -81.8125 23.9375 C-75.74920174 17.9089208 -68.98609548 13.91216345 -61.375 10.125 C-60.59640625 9.71765625 -59.8178125 9.3103125 -59.015625 8.890625 C-40.56848757 -0.12489329 -20.01436399 -0.167471 0 0 Z " fill="#8B51FD" transform="translate(199.375,250.875)"/>
<path d="M0 0 C81.7565678 0 81.7565678 0 95.4375 10.375 C102.86981771 17.98859375 106.0618679 26.86971705 106.4375 37.4375 C106.11388991 48.04195363 102.6983909 55.20503936 95.39453125 62.8359375 C92.16354788 65.75594531 88.75649643 67.81440208 85 70 C85 70.66 85 71.32 85 72 C85.68964844 72.21914063 86.37929688 72.43828125 87.08984375 72.6640625 C98.87379524 76.64053996 106.78690107 81.93731028 113 93 C115.69035836 99.19222486 116.44924328 104.79410978 116.3125 111.5 C116.31572266 112.29019531 116.31894531 113.08039063 116.32226562 113.89453125 C116.22229578 125.00027252 113.36893127 135.89668626 105.88671875 144.40234375 C78.86697722 169.46210403 29.34230733 158 0 158 C0 105.86 0 53.72 0 0 Z " fill="#5ADDE2" transform="translate(193,560)"/>
<path d="M0 0 C82.76853355 0 82.76853355 0 95.25390625 11.9921875 C103.92748657 21.96583466 106.81424989 33.03555806 106.34765625 46.0234375 C105.53016902 55.37402178 102.38813565 63.11689984 96 70 C95.49855469 70.54269531 94.99710937 71.08539063 94.48046875 71.64453125 C90.09827863 75.85612517 85.14678523 77.77702916 79.4765625 79.82421875 C78.65929687 80.21222656 77.84203125 80.60023438 77 81 C76.505 82.485 76.505 82.485 76 84 C76.680625 84.20625 77.36125 84.4125 78.0625 84.625 C87.29495599 88.94657514 92.15880003 97.04426494 95.57299805 106.34130859 C95.96998901 107.47173584 95.96998901 107.47173584 96.375 108.625 C96.66608643 109.43404785 96.95717285 110.2430957 97.25708008 111.07666016 C100.76975553 120.96412131 103.89572573 130.97848436 107 141 C107.43079095 142.38027034 107.86176048 143.76048497 108.29296875 145.140625 C109.62038294 149.41518623 110.91421912 153.65687648 112 158 C105.4 158 98.8 158 92 158 C90.96166016 154.63941406 90.96166016 154.63941406 89.90234375 151.2109375 C87.17962821 142.47197784 84.3299756 133.77787046 81.39819336 125.10693359 C80.83799569 123.44319724 80.28270548 121.77780094 79.73217773 120.11083984 C75.14612752 103.85963325 75.14612752 103.85963325 64.625 91.5 C49.52483717 85.25165676 36.6186542 87.51819571 19 87 C19 110.43 19 133.86 19 158 C12.73 158 6.46 158 0 158 C0 105.86 0 53.72 0 0 Z " fill="#0BBCDB" transform="translate(413,284)"/>
<path d="M0 0 C1.084021 0.00523682 2.16804199 0.01047363 3.28491211 0.01586914 C4.45473633 0.0190918 5.62456055 0.02231445 6.82983398 0.02563477 C8.0615332 0.03401367 9.29323242 0.04239258 10.56225586 0.05102539 C12.41560547 0.05779297 12.41560547 0.05779297 14.30639648 0.06469727 C17.37089703 0.07652931 20.43530307 0.09301366 23.49975586 0.11352539 C26.7448384 7.01436442 29.31996656 14.05833992 31.77319336 21.27368164 C32.17340195 22.4396286 32.57361053 23.60557556 32.98594666 24.80685425 C33.84171422 27.30123013 34.69608007 29.79603172 35.54800415 32.29171753 C36.89116852 36.22606054 38.24005863 40.15842395 39.59033203 44.09033203 C39.92817231 45.07412102 39.92817231 45.07412102 40.27283764 46.07778454 C40.72718638 47.40077038 41.1815597 48.72374778 41.63595772 50.04671669 C42.31583826 52.02664479 42.9952351 54.00673833 43.67454529 55.98686218 C47.34716402 66.68901444 51.06369028 77.37526335 54.81225586 88.05102539 C55.35994753 89.6114085 55.90763634 91.17179261 56.45532227 92.73217773 C57.27508521 95.06767296 58.09486988 97.40316044 58.91491699 99.73855591 C61.16010488 106.13615469 63.3918478 112.53839635 65.62084961 118.94165039 C65.96646439 119.93415298 66.31207916 120.92665558 66.66816711 121.94923401 C68.02664925 125.85056973 69.38511741 129.75190851 70.74136353 133.65402222 C71.66503886 136.31144438 72.5900881 138.9683848 73.51538086 141.62524414 C73.78865707 142.41284119 74.06193329 143.20043823 74.3434906 144.01190186 C75.39531738 147.02912955 76.45513899 150.00661934 77.6862793 152.95654297 C78.49975586 155.11352539 78.49975586 155.11352539 78.49975586 158.11352539 C71.89975586 158.11352539 65.29975586 158.11352539 58.49975586 158.11352539 C56.50311491 152.31206099 54.50832672 146.51002917 52.51831055 140.70629883 C51.84037341 138.7309863 51.16134031 136.75604956 50.48120117 134.78149414 C49.50535229 131.94783382 48.53341676 129.11285776 47.56225586 126.27758789 C47.25602295 125.39108551 46.94979004 124.50458313 46.63427734 123.59121704 C46.35398682 122.77051727 46.07369629 121.9498175 45.78491211 121.10424805 C45.53620361 120.38032867 45.28749512 119.6564093 45.03125 118.91055298 C44.49975586 117.11352539 44.49975586 117.11352539 44.49975586 115.11352539 C22.05975586 115.44352539 -0.38024414 115.77352539 -23.50024414 116.11352539 C-28.12024414 129.97352539 -32.74024414 143.83352539 -37.50024414 158.11352539 C-44.10024414 158.11352539 -50.70024414 158.11352539 -57.50024414 158.11352539 C-55.59588405 151.66750652 -53.59382062 145.27728252 -51.41821289 138.91821289 C-51.12779617 138.06505997 -50.83737946 137.21190704 -50.53816223 136.332901 C-49.59016399 133.55070669 -48.63916415 130.76955127 -47.68774414 127.98852539 C-47.35766357 127.02189972 -47.02758301 126.05527405 -46.6875 125.05935669 C-40.61128332 107.26797699 -34.42355705 89.51685513 -28.19073486 71.77984619 C-24.63124896 61.64694714 -21.09771702 51.504996 -17.56274414 41.36352539 C-16.95403652 39.61734457 -16.34531301 37.87116928 -15.73657227 36.125 C-15.44334076 35.28380112 -15.15010925 34.44260223 -14.84799194 33.57591248 C-14.27010032 31.91884981 -13.6918401 30.26191565 -13.1131897 28.6051178 C-11.58142157 24.21902746 -10.05602174 19.83084924 -8.53881836 15.43969727 C-7.8996654 13.59659581 -7.26050545 11.75349678 -6.62133789 9.91040039 C-6.32308609 9.04296204 -6.02483429 8.17552368 -5.71754456 7.28179932 C-5.44143845 6.48731384 -5.16533234 5.69282837 -4.88085938 4.87426758 C-4.63778549 4.17049988 -4.39471161 3.46673218 -4.14427185 2.74163818 C-3.11715546 0.14507081 -2.91029288 0.13214395 0 0 Z " fill="#5ADDE2" transform="translate(385.500244140625,559.886474609375)"/>
<path d="M0 0 C8.91 0 17.82 0 27 0 C36.42337203 26.12844062 45.60368288 52.33363251 54.63232422 78.60107422 C60.2018306 94.80268022 65.81678273 110.98714489 71.51196289 127.14501953 C75.1195682 137.39451066 78.5852595 147.6844257 82 158 C75.4 158 68.8 158 62 158 C58.81041652 150.30177631 56.05162291 142.49645548 53.42578125 134.59301758 C52.74249181 132.53994017 52.0511487 130.48968524 51.359375 128.43945312 C50.9213897 127.12776611 50.4838721 125.81592282 50.046875 124.50390625 C49.65338867 123.32642822 49.25990234 122.1489502 48.85449219 120.93579102 C48 118 48 118 48 115 C25.23 115 2.46 115 -21 115 C-21.66 117.97 -22.32 120.94 -23 124 C-23.8977821 126.79942384 -24.82163473 129.55495592 -25.8203125 132.31640625 C-26.08383514 133.05833725 -26.34735779 133.80026825 -26.61886597 134.56468201 C-27.44928203 136.899093 -28.2869907 139.23080554 -29.125 141.5625 C-29.69449816 143.15933134 -30.26351283 144.75633521 -30.83203125 146.35351562 C-32.21489795 150.23804061 -33.60762923 154.11881971 -35 158 C-41.27 158 -47.54 158 -54 158 C-51.7499547 147.87479617 -51.7499547 147.87479617 -50.25097656 143.56420898 C-49.9153772 142.59130417 -49.57977783 141.61839935 -49.23400879 140.61601257 C-48.87319214 139.58643936 -48.51237549 138.55686615 -48.140625 137.49609375 C-47.75982788 136.39687088 -47.37903076 135.29764801 -46.98669434 134.16511536 C-45.74594789 130.58754921 -44.49808275 127.01251267 -43.25 123.4375 C-42.38274673 120.94186771 -41.51588837 118.44609816 -40.64941406 115.95019531 C-38.10659837 108.63101923 -35.55446442 101.31511733 -33 94 C-32.32550708 92.06722485 -31.65102684 90.13444528 -30.9765625 88.20166016 C-28.13453309 80.06039017 -25.28491849 71.92180477 -22.4296875 63.78515625 C-19.92598364 56.65023216 -17.43301562 49.51161202 -14.9453125 42.37109375 C-14.60467773 41.39353119 -14.26404297 40.41596863 -13.91308594 39.40878296 C-12.57802338 35.57703423 -11.24306484 31.74525012 -9.9095459 27.91296387 C-9.00023209 25.29982583 -8.09002291 22.68700104 -7.1796875 20.07421875 C-6.91672882 19.31757431 -6.65377014 18.56092987 -6.38284302 17.78135681 C-4.30906527 11.83276856 -2.15350758 5.92214585 0 0 Z " fill="#5ADDE2" transform="translate(667,560)"/>
<path d="M0 0 C8.91 0 17.82 0 27 0 C33.47748587 18.29859603 39.92296005 36.60799268 46.3125 54.9375 C46.62516815 55.83443573 46.9378363 56.73137146 47.25997925 57.65548706 C49.18547283 63.1797165 51.11013315 68.70423603 53.03460693 74.2288208 C55.58329543 81.54487973 58.1331502 88.86053193 60.68389893 96.1758728 C61.3081386 97.9662249 61.93228507 99.7566095 62.55633545 101.54702759 C65.96755988 111.33318154 69.3886035 121.11575115 72.83203125 130.890625 C73.138526 131.76103424 73.44502075 132.63144348 73.76080322 133.52822876 C75.21871514 137.66787188 76.67839813 141.80687584 78.14111328 145.94482422 C78.65532257 147.40330299 79.16948552 148.8617981 79.68359375 150.3203125 C79.92028275 150.98782532 80.15697174 151.65533813 80.40083313 152.34307861 C82 156.88661508 82 156.88661508 82 158 C75.4 158 68.8 158 62 158 C58.81041652 150.30177631 56.05162291 142.49645548 53.42578125 134.59301758 C52.74249181 132.53994017 52.0511487 130.48968524 51.359375 128.43945312 C50.9213897 127.12776611 50.4838721 125.81592282 50.046875 124.50390625 C49.65338867 123.32642822 49.25990234 122.1489502 48.85449219 120.93579102 C48 118 48 118 48 115 C25.23 115 2.46 115 -21 115 C-21.66 117.97 -22.32 120.94 -23 124 C-23.8977821 126.79942384 -24.82163473 129.55495592 -25.8203125 132.31640625 C-26.08383514 133.05833725 -26.34735779 133.80026825 -26.61886597 134.56468201 C-27.44928203 136.899093 -28.2869907 139.23080554 -29.125 141.5625 C-29.69449816 143.15933134 -30.26351283 144.75633521 -30.83203125 146.35351562 C-32.21489795 150.23804061 -33.60762923 154.11881971 -35 158 C-41.27 158 -47.54 158 -54 158 C-51.74984896 147.87432031 -51.74984896 147.87432031 -50.39038086 143.96655273 C-50.08434937 143.07916412 -49.77831787 142.19177551 -49.4630127 141.27749634 C-48.96891907 139.86976456 -48.96891907 139.86976456 -48.46484375 138.43359375 C-48.1145813 137.42324066 -47.76431885 136.41288757 -47.40344238 135.37191772 C-46.25316108 132.05867043 -45.09548651 128.74806139 -43.9375 125.4375 C-43.12413861 123.10060607 -42.3110735 120.76360901 -41.49829102 118.42651367 C-35.51888706 101.25540582 -29.45477486 84.11447947 -23.36523438 66.98217773 C-15.44973376 44.69899405 -7.72395056 22.3501548 0 0 Z " fill="#0BBCDB" transform="translate(736,284)"/>
<path d="M0 0 C8.91 0 17.82 0 27 0 C33.47748587 18.29859603 39.92296005 36.60799268 46.3125 54.9375 C46.62516815 55.83443573 46.9378363 56.73137146 47.25997925 57.65548706 C49.18547283 63.1797165 51.11013315 68.70423603 53.03460693 74.2288208 C55.58329543 81.54487973 58.1331502 88.86053193 60.68389893 96.1758728 C61.3081386 97.9662249 61.93228507 99.7566095 62.55633545 101.54702759 C65.96755988 111.33318154 69.3886035 121.11575115 72.83203125 130.890625 C73.138526 131.76103424 73.44502075 132.63144348 73.76080322 133.52822876 C75.21871514 137.66787188 76.67839813 141.80687584 78.14111328 145.94482422 C78.65532257 147.40330299 79.16948552 148.8617981 79.68359375 150.3203125 C79.92028275 150.98782532 80.15697174 151.65533813 80.40083313 152.34307861 C82 156.88661508 82 156.88661508 82 158 C75.4 158 68.8 158 62 158 C58.81041652 150.30177631 56.05162291 142.49645548 53.42578125 134.59301758 C52.74249181 132.53994017 52.0511487 130.48968524 51.359375 128.43945312 C50.9213897 127.12776611 50.4838721 125.81592282 50.046875 124.50390625 C49.65338867 123.32642822 49.25990234 122.1489502 48.85449219 120.93579102 C48 118 48 118 48 115 C25.23 115 2.46 115 -21 115 C-21.66 117.97 -22.32 120.94 -23 124 C-23.8977821 126.79942384 -24.82163473 129.55495592 -25.8203125 132.31640625 C-26.08383514 133.05833725 -26.34735779 133.80026825 -26.61886597 134.56468201 C-27.44928203 136.899093 -28.2869907 139.23080554 -29.125 141.5625 C-29.69449816 143.15933134 -30.26351283 144.75633521 -30.83203125 146.35351562 C-32.21489795 150.23804061 -33.60762923 154.11881971 -35 158 C-41.27 158 -47.54 158 -54 158 C-51.74984896 147.87432031 -51.74984896 147.87432031 -50.39038086 143.96655273 C-50.08434937 143.07916412 -49.77831787 142.19177551 -49.4630127 141.27749634 C-48.96891907 139.86976456 -48.96891907 139.86976456 -48.46484375 138.43359375 C-48.1145813 137.42324066 -47.76431885 136.41288757 -47.40344238 135.37191772 C-46.25316108 132.05867043 -45.09548651 128.74806139 -43.9375 125.4375 C-43.12413861 123.10060607 -42.3110735 120.76360901 -41.49829102 118.42651367 C-35.51888706 101.25540582 -29.45477486 84.11447947 -23.36523438 66.98217773 C-15.44973376 44.69899405 -7.72395056 22.3501548 0 0 Z " fill="#0BBCDB" transform="translate(301,284)"/>
<path d="M0 0 C6.27 0 12.54 0 19 0 C19 22.77 19 45.54 19 69 C23.87492308 67.05003077 25.09851852 66.170671 28.3125 62.375 C31.15753217 59.09118177 34.01953772 55.91413202 37.125 52.875 C40.33331229 49.71741202 43.28615748 46.4124713 46.21875 43 C48.0742521 40.91662922 50.01223101 38.95718793 52 37 C54.59982183 34.44009866 57.06268398 31.8322046 59.4375 29.0625 C62.71130653 25.25175937 66.23363971 21.74921835 69.80859375 18.22265625 C71.8147019 16.1879405 73.70113516 14.10414563 75.5625 11.9375 C76.13871094 11.29683594 76.71492187 10.65617187 77.30859375 9.99609375 C79.05542482 8.02132052 79.05542482 8.02132052 80.47265625 5.72265625 C82.53433245 2.94938496 83.89109091 1.59176145 87 0 C93.93860957 -0.99002455 101.03325794 -0.49114776 108 0 C107.1912927 3.91573823 105.80372759 5.49004654 102.875 8.25 C99.30157237 11.63795561 96.0530636 15.18945262 92.83398438 18.90771484 C89.90878141 22.24490726 86.86033829 25.46262556 83.8125 28.6875 C82.48657708 30.09597575 81.16106119 31.50483478 79.8359375 32.9140625 C78.86092285 33.95095215 78.86092285 33.95095215 77.86621094 35.00878906 C75.20752384 37.84555672 72.57015016 40.70158279 69.9375 43.5625 C65.60483844 48.27032184 61.24608993 52.9528416 56.875 57.625 C51.19351052 63.69974519 45.57196629 69.824618 40 76 C44.34929538 81.15472045 48.85816114 86.10832516 53.5 91 C54.92604909 92.50886148 56.35182538 94.01798084 57.77734375 95.52734375 C58.48745605 96.27870605 59.19756836 97.03006836 59.92919922 97.80419922 C62.98597238 101.04548875 66.02540258 104.30278356 69.0625 107.5625 C73.84666876 112.69455889 78.63818574 117.81960038 83.4375 122.9375 C84.05439697 123.59564697 84.67129395 124.25379395 85.30688477 124.93188477 C88.54583863 128.38657225 91.78821703 131.83797216 95.03515625 135.28515625 C95.699104 135.99099854 96.36305176 136.69684082 97.04711914 137.42407227 C98.30167043 138.75767016 99.5572782 140.09027543 100.81420898 141.42163086 C102.55340589 143.27157679 104.27937537 145.13277506 106 147 C106.65742187 147.70640625 107.31484375 148.4128125 107.9921875 149.140625 C108.63414062 149.84703125 109.27609375 150.5534375 109.9375 151.28125 C110.52402344 151.92126953 111.11054687 152.56128906 111.71484375 153.22070312 C113 155 113 155 113 158 C95.09880031 160.37077828 95.09880031 160.37077828 88.76123047 156.70507812 C84.74661747 153.29581937 81.62723482 149.1786729 78.50976562 144.95800781 C76.27476969 142.05945228 73.707756 139.58159694 71.0625 137.0625 C68.1311982 134.16523363 65.29460389 131.26455861 62.625 128.125 C59.43870588 124.38456778 55.99120031 120.95196232 52.5 117.5 C48.47232178 113.51748779 44.61359162 109.49788101 40.953125 105.171875 C37.63639592 101.48367226 34.0738777 98.03454322 30.52929688 94.56640625 C28.26803275 92.34017959 26.19209064 90.27258577 24.359375 87.671875 C22.91488598 85.55392084 22.91488598 85.55392084 19 85 C19 109.09 19 133.18 19 158 C12.73 158 6.46 158 0 158 C0 105.86 0 53.72 0 0 Z " fill="#0BBCDB" transform="translate(559,284)"/>
<path d="M0 0 C6.27 0 12.54 0 19 0 C19 22.77 19 45.54 19 69 C26.37828342 64.57302995 31.58563303 58.54610825 37.15234375 52.06640625 C39.90688771 48.98574292 42.86753663 46.1239021 45.80859375 43.22265625 C48.42101068 40.5729856 50.83302621 37.78827197 53.25390625 34.96484375 C55.72481389 32.18438168 58.3816694 29.60881782 61.03125 27 C62.93986455 25.06108998 64.72710552 23.06300449 66.5 21 C69.50919334 17.49839321 72.71511081 14.26485193 76.00390625 11.02734375 C78.67807367 8.3113107 81.16930457 5.45668648 83.65234375 2.56640625 C84.40849619 1.68751602 85.18017851 0.81982149 86 0 C87.56172745 -0.08685603 89.12729344 -0.10702219 90.69140625 -0.09765625 C91.63564453 -0.09443359 92.57988281 -0.09121094 93.55273438 -0.08789062 C94.54595703 -0.07951172 95.53917969 -0.07113281 96.5625 -0.0625 C97.55958984 -0.05798828 98.55667969 -0.05347656 99.58398438 -0.04882812 C102.05604849 -0.03700007 104.52799518 -0.02051849 107 0 C106.14031948 4.27683965 104.20038867 6.26082053 101.1875 9.4375 C100.17700257 10.51294496 99.1665887 11.58846843 98.15625 12.6640625 C97.63289062 13.21610352 97.10953125 13.76814453 96.5703125 14.33691406 C94.57687592 16.44812208 92.61177643 18.58440704 90.64770508 20.72290039 C85.20377265 26.64924115 79.71051718 32.52948764 74.21606445 38.40893555 C69.44318412 43.51874056 64.69383421 48.64972317 59.95703125 53.79296875 C57.89703313 56.02951843 55.83120445 58.26050803 53.76171875 60.48828125 C53.22627441 61.06562012 52.69083008 61.64295898 52.13916016 62.23779297 C51.12568931 63.33035785 50.11113039 64.42191497 49.09521484 65.51220703 C45.9419645 68.91552384 42.94449131 72.41424017 40 76 C44.16092701 82.06306507 48.95068183 87.07589262 54.17504883 92.20629883 C57.77961721 95.75302058 61.18571838 99.38614134 64.4609375 103.2421875 C66.60655063 105.69276087 68.93125414 107.94138769 71.25390625 110.22265625 C73.06477643 112.06593574 74.75321354 113.97822799 76.4375 115.9375 C78.85617779 118.74576347 81.35899683 121.39970593 84 124 C87.25029983 127.20029522 90.24724245 130.54224576 93.21875 134 C95.69768583 136.78336654 98.3565692 139.36656424 101.01171875 141.98046875 C103.61925194 144.62898478 106.04417483 147.4127748 108.45703125 150.23828125 C109.96308032 152.02538338 109.96308032 152.02538338 111.69921875 153.54296875 C113 155 113 155 113 158 C95.24185486 160.37278217 95.24185486 160.37278217 88.59863281 156.65673828 C83.69053812 152.74695673 79.82991964 147.93550499 76 143 C74.80089015 141.61694902 73.59495694 140.23969759 72.375 138.875 C71.87742187 138.28460937 71.37984375 137.69421875 70.8671875 137.0859375 C67.65444186 133.49680324 64.18159761 130.1627509 60.75732422 126.77685547 C57.31595516 123.35928153 54.07383799 119.85712883 50.9375 116.15625 C47.69978749 112.55298931 44.21481371 109.19544275 40.77099609 105.79052734 C37.20260306 102.24695072 33.82054119 98.61156692 30.5546875 94.78515625 C25.57248119 88.76840067 25.57248119 88.76840067 19 85 C19 109.09 19 133.18 19 158 C12.73 158 6.46 158 0 158 C0 105.86 0 53.72 0 0 Z " fill="#5ADDE2" transform="translate(779,560)"/>
<path d="M0 0 C1.28132812 -0.00257813 2.56265625 -0.00515625 3.8828125 -0.0078125 C4.54249023 -0.00362305 5.20216797 0.00056641 5.88183594 0.00488281 C7.87172084 0.01552391 9.86168398 0.00396193 11.8515625 -0.0078125 C29.81097739 0.02817831 43.19944432 3.78689956 56.4453125 16.54296875 C57.00476563 17.11144531 57.56421875 17.67992187 58.140625 18.265625 C57.51668849 22.02681976 55.79288785 24.45522542 53.578125 27.515625 C52.93746094 28.40765625 52.29679688 29.2996875 51.63671875 30.21875 C51.14300781 30.89421875 50.64929688 31.5696875 50.140625 32.265625 C48.490625 31.935625 46.840625 31.605625 45.140625 31.265625 C44.645625 29.780625 44.645625 29.780625 44.140625 28.265625 C42.27629582 27.17697709 42.27629582 27.17697709 40.140625 26.265625 C38.9683291 25.4823182 37.8018555 24.69024425 36.640625 23.890625 C23.71050723 15.98236785 8.1413017 15.10477779 -6.578125 17.99609375 C-12.8981278 20.12301777 -17.98909681 23.15746484 -21.48828125 28.97265625 C-24.42189916 36.01835396 -24.07331712 45.17652882 -21.421875 52.328125 C-17.04289734 60.41706984 -8.78775713 62.75728172 -0.50024414 65.23706055 C4.35613712 66.60901349 9.24353627 67.83428047 14.13989258 69.05444336 C48.13837975 77.62426499 48.13837975 77.62426499 58.140625 91.265625 C64.98053589 102.80615551 67.49550617 114.99316661 64.70996094 128.32714844 C61.2772523 140.07450375 54.40969111 149.50135548 43.765625 155.515625 C32.8725337 161.10373613 22.82276763 162.44305316 10.703125 162.390625 C9.81302734 162.39449219 8.92292969 162.39835938 8.00585938 162.40234375 C-9.90023077 162.37618438 -26.77517717 157.4056445 -39.921875 144.640625 C-42.73380791 141.73967373 -45.13513223 138.94024074 -46.859375 135.265625 C-46.73131047 130.93165159 -44.8759039 128.61806827 -42.046875 125.453125 C-41.01626953 124.26783203 -41.01626953 124.26783203 -39.96484375 123.05859375 C-37.859375 121.265625 -37.859375 121.265625 -33.859375 121.265625 C-32.47265625 122.734375 -32.47265625 122.734375 -31.171875 124.765625 C-24.14440707 134.7168014 -13.97243028 141.99233 -1.859375 144.265625 C11.49421944 145.39504589 26.21457388 146.1042292 37.640625 138.078125 C40.85213576 134.46517539 42.42735422 130.73770104 44.140625 126.265625 C44.470625 125.605625 44.800625 124.945625 45.140625 124.265625 C45.97845039 115.36073799 45.81043692 107.51708658 40.140625 100.265625 C32.24032021 92.53595314 20.13802882 90.22122733 9.73046875 87.6796875 C-27.30416013 78.61752462 -27.30416013 78.61752462 -37.109375 63.578125 C-43.05451459 52.88005296 -44.96523578 40.29584158 -42.16796875 28.30078125 C-37.82286338 16.50172942 -29.43433452 9.16153205 -18.171875 3.953125 C-12.20122348 1.39096192 -6.50907519 0.01276647 0 0 Z " fill="#5ADDE2" transform="translate(528.859375,557.734375)"/>
<path d="M0 0 C8.559375 -0.04125 17.11875 -0.0825 25.9375 -0.125 C28.62253662 -0.14320801 31.30757324 -0.16141602 34.07397461 -0.18017578 C36.22509563 -0.18602229 38.37621888 -0.19111748 40.52734375 -0.1953125 C42.17482605 -0.2106604 42.17482605 -0.2106604 43.85559082 -0.22631836 C53.59127889 -0.22850738 62.30370236 0.58371818 70 7 C76.95712272 14.34277254 78.43420108 21.8662371 78.35913086 31.86328125 C78.12454571 40.390795 76.24064811 47.23074354 70.125 53.4375 C56.99449732 63.40906221 40.20252255 61.47376661 24.625 61.25 C16.49875 61.1675 8.3725 61.085 0 61 C0 40.87 0 20.74 0 0 Z " fill="#000101" transform="translate(212,642)"/>
<path d="M0 0 C11.570625 -0.12375 11.570625 -0.12375 23.375 -0.25 C26.99734619 -0.30462402 26.99734619 -0.30462402 30.69287109 -0.36035156 C32.63638423 -0.372049 34.57990726 -0.38223832 36.5234375 -0.390625 C37.50868408 -0.41108887 38.49393066 -0.43155273 39.5090332 -0.45263672 C46.9006125 -0.45630773 54.18866705 0.63819707 59.9180603 5.6918335 C65.78479959 11.94942165 67.54674006 18.52077847 67.4375 26.875 C67.43137695 27.6693042 67.42525391 28.4636084 67.41894531 29.28198242 C67.25985398 35.24240027 66.34783636 39.96074805 63 45 C62.443125 45.928125 61.88625 46.85625 61.3125 47.8125 C55.9886371 52.84858653 48.55869938 55.13340302 41.32324219 55.11352539 C40.3897998 55.11340454 39.45635742 55.11328369 38.49462891 55.11315918 C37.52187012 55.10804321 36.54911133 55.10292725 35.546875 55.09765625 C34.64662598 55.09664917 33.74637695 55.09564209 32.81884766 55.09460449 C29.46255211 55.08938058 26.10627475 55.0754193 22.75 55.0625 C15.2425 55.041875 7.735 55.02125 0 55 C0 36.85 0 18.7 0 0 Z " fill="#000000" transform="translate(432,300)"/>
<path d="M0 0 C11.0446875 -0.0928125 11.0446875 -0.0928125 22.3125 -0.1875 C24.61387939 -0.21481201 26.91525879 -0.24212402 29.28637695 -0.27026367 C31.14533974 -0.27903945 33.00430838 -0.28668079 34.86328125 -0.29296875 C36.26870178 -0.3159906 36.26870178 -0.3159906 37.70251465 -0.33947754 C46.87609123 -0.34304379 55.82396339 0.8599406 62.6328125 7.45703125 C68.08257704 13.60747981 68.29659656 20.01462466 68.21875 27.92578125 C67.75735949 34.40996571 65.86088137 40.51303258 61 45 C55.29479673 48.30301242 49.93311933 51.13105806 43.25317383 51.11352539 C42.27900513 51.11340454 41.30483643 51.11328369 40.30114746 51.11315918 C39.28008911 51.10804321 38.25903076 51.10292725 37.20703125 51.09765625 C36.26645874 51.09664917 35.32588623 51.09564209 34.35681152 51.09460449 C30.84202862 51.089371 27.32726309 51.07540974 23.8125 51.0625 C15.954375 51.041875 8.09625 51.02125 0 51 C0 34.17 0 17.34 0 0 Z " fill="#000101" transform="translate(212,575)"/>
<path d="M0 0 C0.99 0 1.98 0 3 0 C9.05662445 16.54783974 14.82359307 33.17661238 20.36938477 49.90234375 C21.58967185 53.58193256 22.81503638 57.25980422 24.04101562 60.9375 C24.82060026 63.2811543 25.59990843 65.62490058 26.37890625 67.96875 C26.74440079 69.06634644 27.10989532 70.16394287 27.48646545 71.2947998 C27.98345192 72.79532898 27.98345192 72.79532898 28.49047852 74.32617188 C28.78310074 75.20785034 29.07572296 76.08952881 29.37721252 76.9979248 C30 79 30 79 30 80 C11.19 80 -7.62 80 -27 80 C-23.62421466 67.62212042 -23.62421466 67.62212042 -21.56396484 61.52490234 C-21.34080093 60.86165955 -21.11763702 60.19841675 -20.88771057 59.51507568 C-20.16530867 57.37093744 -19.43831311 55.22839304 -18.7109375 53.0859375 C-18.20175885 51.57954429 -17.69278004 50.07308351 -17.18399048 48.56655884 C-16.12539225 45.43445138 -15.06451906 42.30312684 -14.00195312 39.17236328 C-12.63805513 35.15318761 -11.27980305 31.13213005 -9.92317772 27.11049461 C-8.87705343 24.01123155 -7.82809518 20.91293364 -6.77824783 17.81492996 C-6.27580579 16.3311936 -5.77423384 14.84716231 -5.2735405 13.36283493 C-4.57764803 11.30128652 -3.87798005 9.24105926 -3.17724609 7.18115234 C-2.77992279 6.00853851 -2.38259949 4.83592468 -1.97323608 3.6277771 C-1 1 -1 1 0 0 Z " fill="#010303" transform="translate(679,579)"/>
<path d="M0 0 C0.99 0 1.98 0 3 0 C9.05662445 16.54783974 14.82359307 33.17661238 20.36938477 49.90234375 C21.58967185 53.58193256 22.81503638 57.25980422 24.04101562 60.9375 C24.82060026 63.2811543 25.59990843 65.62490058 26.37890625 67.96875 C26.74440079 69.06634644 27.10989532 70.16394287 27.48646545 71.2947998 C27.98345192 72.79532898 27.98345192 72.79532898 28.49047852 74.32617188 C28.78310074 75.20785034 29.07572296 76.08952881 29.37721252 76.9979248 C30 79 30 79 30 80 C11.19 80 -7.62 80 -27 80 C-23.62421466 67.62212042 -23.62421466 67.62212042 -21.56396484 61.52490234 C-21.34080093 60.86165955 -21.11763702 60.19841675 -20.88771057 59.51507568 C-20.16530867 57.37093744 -19.43831311 55.22839304 -18.7109375 53.0859375 C-18.20175885 51.57954429 -17.69278004 50.07308351 -17.18399048 48.56655884 C-16.12539225 45.43445138 -15.06451906 42.30312684 -14.00195312 39.17236328 C-12.63805513 35.15318761 -11.27980305 31.13213005 -9.92317772 27.11049461 C-8.87705343 24.01123155 -7.82809518 20.91293364 -6.77824783 17.81492996 C-6.27580579 16.3311936 -5.77423384 14.84716231 -5.2735405 13.36283493 C-4.57764803 11.30128652 -3.87798005 9.24105926 -3.17724609 7.18115234 C-2.77992279 6.00853851 -2.38259949 4.83592468 -1.97323608 3.6277771 C-1 1 -1 1 0 0 Z " fill="#000203" transform="translate(748,303)"/>
<path d="M0 0 C0.99 0 1.98 0 3 0 C9.05662445 16.54783974 14.82359307 33.17661238 20.36938477 49.90234375 C21.58967185 53.58193256 22.81503638 57.25980422 24.04101562 60.9375 C24.82060026 63.2811543 25.59990843 65.62490058 26.37890625 67.96875 C26.74440079 69.06634644 27.10989532 70.16394287 27.48646545 71.2947998 C27.98345192 72.79532898 27.98345192 72.79532898 28.49047852 74.32617188 C28.78310074 75.20785034 29.07572296 76.08952881 29.37721252 76.9979248 C30 79 30 79 30 80 C11.19 80 -7.62 80 -27 80 C-23.62421466 67.62212042 -23.62421466 67.62212042 -21.56396484 61.52490234 C-21.34080093 60.86165955 -21.11763702 60.19841675 -20.88771057 59.51507568 C-20.16530867 57.37093744 -19.43831311 55.22839304 -18.7109375 53.0859375 C-18.20175885 51.57954429 -17.69278004 50.07308351 -17.18399048 48.56655884 C-16.12539225 45.43445138 -15.06451906 42.30312684 -14.00195312 39.17236328 C-12.63805513 35.15318761 -11.27980305 31.13213005 -9.92317772 27.11049461 C-8.87705343 24.01123155 -7.82809518 20.91293364 -6.77824783 17.81492996 C-6.27580579 16.3311936 -5.77423384 14.84716231 -5.2735405 13.36283493 C-4.57764803 11.30128652 -3.87798005 9.24105926 -3.17724609 7.18115234 C-2.77992279 6.00853851 -2.38259949 4.83592468 -1.97323608 3.6277771 C-1 1 -1 1 0 0 Z " fill="#000203" transform="translate(313,303)"/>
<path d="M0 0 C1.32 0 2.64 0 4 0 C4.39678955 1.19560547 4.7935791 2.39121094 5.20239258 3.62304688 C7.07032339 9.24939835 8.9411833 14.87477391 10.8125 20.5 C11.14992218 21.51487488 11.48734436 22.52974976 11.83499146 23.57537842 C15.32546347 34.06889591 18.82448825 44.5584311 22.4453125 55.0078125 C22.83377602 56.12968964 22.83377602 56.12968964 23.23008728 57.27423096 C24.42897017 60.73167644 25.63458442 64.1866094 26.84887695 67.63867188 C27.2687085 68.84330078 27.68854004 70.04792969 28.12109375 71.2890625 C28.4864624 72.32756348 28.85183105 73.36606445 29.22827148 74.43603516 C30 77 30 77 30 80 C11.52 80 -6.96 80 -26 80 C-23.74982997 69.87423488 -23.74982997 69.87423488 -22.32348633 65.61401367 C-22.00587845 64.65818893 -21.68827057 63.7023642 -21.36103821 62.71757507 C-21.02146591 61.71120499 -20.68189362 60.7048349 -20.33203125 59.66796875 C-19.9741301 58.59613846 -19.61622894 57.52430817 -19.2474823 56.41999817 C-18.49058439 54.1560013 -17.73153581 51.89272244 -16.97045898 49.63012695 C-15.82926641 46.23734677 -14.69428196 42.84254416 -13.56054688 39.44726562 C-9.14872762 26.25949929 -4.63585107 13.11066495 0 0 Z " fill="#010303" transform="translate(394,579)"/>
</svg>
